<?xml version="1.0" encoding="UTF-8" standalone="no"?>
<svg
   viewBox="0 0 228.66 39.08"
   version="1.1"
   id="svg14"
   sodipodi:docname="navbar-logo.svg"
   inkscape:version="1.4.2 (f4327f4, 2025-05-13)"
   xmlns:inkscape="http://www.inkscape.org/namespaces/inkscape"
   xmlns:sodipodi="http://sodipodi.sourceforge.net/DTD/sodipodi-0.dtd"
   xmlns="http://www.w3.org/2000/svg"
   xmlns:svg="http://www.w3.org/2000/svg">
  <defs
     id="defs14" />
  <sodipodi:namedview
     id="namedview14"
     pagecolor="#ffffff"
     bordercolor="#666666"
     borderopacity="1.0"
     inkscape:showpageshadow="2"
     inkscape:pageopacity="0.0"
     inkscape:pagecheckerboard="0"
     inkscape:deskcolor="#d1d1d1"
     showgrid="false"
     inkscape:zoom="10.924517"
     inkscape:cx="114.33"
     inkscape:cy="19.543199"
     inkscape:window-width="3440"
     inkscape:window-height="1377"
     inkscape:window-x="-8"
     inkscape:window-y="-8"
     inkscape:window-maximized="1"
     inkscape:current-layer="svg14" />
  <style
     id="style1">.cls-1{fill:#fed136;}</style>
  <path
     style="opacity:0.8;fill:#ffff00;fill-rule:evenodd;stroke:#f8f818;stroke-width:1.88976;stroke-dasharray:none;stroke-opacity:1"
     id="path27"
     d="M 34.90666,9.0887461 C 34.895848,8.8525127 34.914463,8.613078 34.874224,8.3800459 34.545617,6.4769976 33.290592,4.8626687 31.800224,3.6936255 31.27619,3.2825736 30.689646,2.958155 30.134356,2.5904197 29.4796,2.2973755 28.84533,1.9534165 28.170086,1.7112869 25.713706,0.83047588 22.981917,0.57971969 20.398655,0.90996918 18.742748,1.1216637 18.067552,1.7010402 16.691093,2.5118235 16.263421,2.9523394 15.772634,3.339351 15.408078,3.8333713 14.36528,5.246496 14.056236,6.897326 14.27155,8.6117611 c 0.152836,1.2169588 0.456933,1.8253299 0.882742,2.9562559 0.870062,1.983102 1.992396,3.870042 3.487456,5.450268 1.013727,1.071474 1.50107,1.381205 2.656747,2.28123 1.772019,1.202123 3.618629,2.290353 5.461635,3.378994 0.407536,0.240727 0.833837,0.451613 1.224984,0.718146 0.36357,0.247742 0.689037,0.547236 1.033556,0.820854 0.789372,0.724363 1.6158,1.510018 1.938328,2.572038 0.173453,0.571148 0.147395,1.228683 0.0573,1.806908 -0.05659,0.363153 -0.164595,0.716407 -0.246892,1.07461 -0.323499,1.127431 -0.712749,2.237968 -1.156629,3.323752 -0.107409,0.262737 -0.17812,0.548417 -0.34324,0.779291 -0.252573,0.353152 -0.621532,0.335993 -0.994484,0.401757 -0.564323,-0.03325 -1.262915,-0.04055 -1.791481,-0.244365 -0.08562,-0.03301 -0.04124,-0.20837 -0.125334,-0.245105 -0.459375,-0.200681 -0.963225,-0.279183 -1.438655,-0.438131 -1.758122,-0.587785 -1.575111,-0.569978 -3.351404,-1.410118 -0.638446,-0.28902 -1.275057,-0.58213 -1.915339,-0.867061 -0.637034,-0.283486 -1.273408,-0.56876 -1.916528,-0.838153 C 16.442414,29.591777 15.502674,29.249335 14.2055,28.759309 12.445097,28.094292 13.140566,28.357464 11.489222,27.731163 10.631626,27.378118 9.7607535,27.05999 8.8861142,26.752414 8.6697545,26.587868 6.3427174,29.647657 6.5590771,29.812203 v 0 c 0.7716578,0.54313 1.5542145,1.070653 2.3797067,1.530395 1.0160916,0.558615 1.5339622,0.854528 2.5959462,1.388154 0.517035,0.259799 1.04053,0.506548 1.561899,0.757538 1.87968,0.90489 3.758061,1.817399 5.693926,2.598138 0.292006,0.104418 3.518275,1.264363 3.932662,1.389587 0.629777,0.190312 1.260864,0.394022 1.911467,0.491765 0.985495,0.148055 1.98322,0.238904 2.979766,0.243065 0.569825,0.0024 1.141096,-0.08899 1.69481,-0.223548 0.523912,-0.127317 1.012289,-0.371541 1.518434,-0.557312 0.420536,-0.293911 0.880269,-0.53849 1.261607,-0.881732 0.357254,-0.321563 0.648794,-0.711456 0.936332,-1.096626 0.234923,-0.31469 0.438066,-0.653151 0.626945,-0.997453 0.707761,-1.290159 1.173781,-2.691948 1.503849,-4.121475 0.195661,-1.328666 0.365377,-1.945017 0.246091,-3.300392 -0.156094,-1.773587 -0.782449,-3.32487 -1.89382,-4.715351 -0.359421,-0.449686 -0.795873,-0.831981 -1.193809,-1.247972 -0.448098,-0.345452 -0.887051,-0.703103 -1.344295,-1.036355 -2.03646,-1.48423 -4.28919,-2.626258 -6.404048,-3.986965 -0.897842,-0.626668 -1.376026,-0.91207 -2.174361,-1.656782 -1.302915,-1.215398 -2.241427,-2.742587 -3.12006,-4.276103 -0.390736,-0.7729123 -1.161266,-2.0412814 -0.813331,-2.9625805 0.213059,-0.5641589 0.481633,-0.6341084 0.966239,-0.9828868 1.553539,-0.5540429 0.521051,-0.2620843 2.373887,-0.5548573 0.12841,-0.020291 0.2513,-0.08257 0.381302,-0.081957 1.696552,0.008 3.382399,0.2450656 4.997697,0.770279 0.448264,0.1827809 0.908079,0.33946 1.344792,0.5483426 0.685458,0.32786 1.270272,0.6988006 1.826399,1.2108322 0.439026,0.404216 0.796664,0.9010079 1.137301,1.3873731 0.02536,0.2418481 3.445604,-0.1167301 3.420249,-0.3585782 z" />
  <path
     style="opacity:0.8;fill:#ffff00;fill-rule:evenodd;stroke:#f8f818;stroke-width:1.88976;stroke-dasharray:none;stroke-opacity:1"
     id="path28"
     d="m 56.125983,19.581418 c -0.195858,-0.107445 -0.383319,-0.231865 -0.587573,-0.322335 -1.626626,-0.720484 -3.1379,-0.822224 -4.9442,-0.834749 -0.649924,-0.0045 -1.300695,0.05564 -1.944373,0.145638 -0.676605,0.0946 -1.33915,0.271389 -2.008725,0.407083 -1.722822,0.612987 -2.358391,0.706073 -3.87289,1.780336 -1.157473,0.821018 -2.15175,1.870467 -2.926832,3.057339 -0.961571,1.472441 -1.027197,2.036713 -1.558312,3.673979 -0.09923,0.604952 -0.238805,1.204653 -0.297696,1.814854 -0.148183,1.535409 -0.02782,3.405283 0.55332,4.850217 0.553378,1.375917 0.918159,1.574613 1.904657,2.63963 0.461416,0.295285 0.891648,0.646183 1.384248,0.885856 1.784749,0.868365 3.723423,0.822656 5.651209,0.663504 0.758202,-0.0626 2.040639,-0.402222 2.777244,-0.580154 2.448671,-0.738199 4.813248,-1.755584 7.062845,-2.970651 0.469599,-0.253643 0.927406,-0.528538 1.391108,-0.792806 1.548077,-0.952444 3.21558,-1.913045 4.25588,-3.460678 0.654103,-0.973095 0.621195,-1.232993 0.911991,-2.349274 0.01058,-0.412511 0.06062,-0.825899 0.03173,-1.237532 -0.08242,-1.17414 -0.507401,-2.29519 -1.104714,-3.298397 -0.215547,-0.362018 -0.439058,-0.721908 -0.701974,-1.051139 -0.283541,-0.355061 -0.621267,-0.663238 -0.931901,-0.994856 -0.36692,-0.287423 -0.716514,-0.598456 -1.100759,-0.862269 -1.682205,-1.154961 -3.663792,-1.91967 -5.682221,-2.210389 -0.465034,-0.06698 -0.936861,-0.07254 -1.405292,-0.108817 -0.736993,0.04124 -1.483303,-1.72e-4 -2.21098,0.123707 -0.317965,0.05413 -0.615359,0.218014 -0.879937,0.402488 -0.785426,0.547629 -1.179938,1.189596 -1.190993,2.21614 -0.0043,0.397636 0.256826,0.75271 0.385238,1.129065 0.120367,0.217107 3.190723,-1.485131 3.070356,-1.702238 v 0 c 0.0022,0.192842 0.05737,0.392515 0.0065,0.578526 -0.08739,0.319266 -0.258283,0.610385 -0.412119,0.903476 -0.05274,0.10048 -0.246464,0.166367 -0.204824,0.271931 0.04476,0.113473 0.323019,-0.01782 0.351812,0.100712 0.02507,0.103222 -0.209081,0.03767 -0.313621,0.05651 1.562143,0.182138 3.11407,0.395052 4.605117,0.919879 0.324541,0.114234 0.646811,0.237815 0.95707,0.386531 0.272378,0.130559 0.524581,0.299594 0.786872,0.449392 0.510685,0.385432 0.804766,0.553406 1.200995,1.058115 0.300079,0.382234 0.713576,1.199072 0.847768,1.679253 0.03322,0.118858 0.03658,0.244097 0.05488,0.366145 -0.02621,0.107679 -0.0266,0.225181 -0.07862,0.323036 -0.180374,0.339312 -0.591029,0.665531 -0.877916,0.871212 -1.013927,0.726928 -2.162989,1.237286 -3.2485,1.841105 -0.904382,0.481525 -1.804251,0.971506 -2.709519,1.451363 -1.506454,0.798528 -3.024589,1.613018 -4.710866,1.961074 -0.379017,0.07743 -0.755285,0.169811 -1.137051,0.232292 -0.374406,0.06128 -0.758765,0.05896 -1.129682,0.138685 -0.0332,0.0071 0.051,0.09388 0.01766,0.100331 -0.499119,0.09656 -1.237144,0.109633 -1.752027,0.02637 -0.227938,-0.03686 -0.445646,-0.121068 -0.668469,-0.181602 -0.183423,-0.128387 -0.395573,-0.22331 -0.550271,-0.385162 -0.1756,-0.18372 -0.313066,-0.405057 -0.423705,-0.633852 -0.358214,-0.740766 -0.340441,-1.094921 -0.320236,-1.938676 0.02756,-1.150836 0.106944,-1.301242 0.326941,-2.444536 0.353605,-1.031042 0.411148,-1.431036 1.043786,-2.340184 0.837816,-1.204003 1.94061,-1.93583 3.286171,-2.479141 0.501825,-0.202626 1.027798,-0.339376 1.541696,-0.509065 0.531541,-0.117346 1.059557,-0.251986 1.594623,-0.352039 0.492053,-0.09201 0.997962,-0.108048 1.484973,-0.223819 0.09064,-0.02155 0.122234,-0.162891 0.213814,-0.180013 0.778874,-0.145618 1.590254,-0.02097 2.373837,-0.12292 0.207782,0.128164 2.020297,-2.810322 1.812515,-2.938487 z" />
  <path
     style="opacity:0.8;fill:#ffff00;fill-rule:evenodd;stroke:#f8f818;stroke-width:1.88976;stroke-dasharray:none;stroke-opacity:1"
     id="path29"
     d="m 67.007153,20.276406 c -0.10179,0.149903 -0.213071,0.293782 -0.305368,0.449709 -0.373587,0.631136 -0.793759,1.489296 -1.073019,2.136134 -0.516489,1.19632 -0.952769,2.383885 -1.299884,3.643342 -0.200972,0.729195 -0.345276,1.472834 -0.517914,2.209252 -0.244238,1.773819 -0.424353,2.453452 -0.348467,4.211378 0.02954,0.68429 0.164734,1.874189 0.556873,2.532884 0.244609,0.410883 0.420568,1.11404 0.898734,1.118127 1.123975,0.0096 2.128903,-0.722099 3.193354,-1.083149 0.580789,-1.386015 0.599482,-1.277419 0.95936,-2.798985 0.13392,-0.566217 0.220187,-1.142771 0.344078,-1.711266 0.147754,-0.677991 0.33222,-1.34785 0.470765,-2.027782 0.294121,-1.443441 0.435395,-2.552989 0.64518,-3.998887 0.199212,-1.108521 0.21617,-2.286958 0.636246,-3.349535 0.03727,-0.09428 0.128092,-0.414608 0.327524,-0.371332 0.04922,0.01068 0.08352,0.05631 0.125285,0.08446 -0.08706,0.108072 0.826496,0.03979 0.622907,0.09052 -0.160841,0.04009 -0.336774,-0.03666 -0.49726,0.0048 -0.152821,0.0395 0.315687,4.72e-4 0.473529,0.0013 0.59342,0.0032 0.339804,-0.0043 0.92816,0.03238 0.364287,0.06534 0.532626,0.07708 0.889415,0.226054 0.995035,0.415463 1.839634,1.261743 2.618569,1.980103 0.591289,0.626026 1.222133,1.317794 1.412943,2.192987 0.07587,0.348006 0.0758,0.708646 0.09507,1.064305 0.06277,1.158228 0.02673,1.554216 -0.0056,2.734853 -0.06094,1.265691 -0.188889,2.540503 -0.553551,3.759834 -0.124055,0.414807 -0.32815,0.909221 -0.552382,1.293732 -0.05014,0.08598 -0.118573,0.159907 -0.17786,0.23986 0.585827,-0.603816 0.07032,-0.139796 2.077547,-0.115695 -0.184498,-0.154163 -2.364688,2.455031 -2.180191,2.609193 v 0 c 2.607163,0.266548 1.63474,0.618787 3.095291,-0.215166 0.649856,-0.608634 0.869398,-0.740843 1.364825,-1.545401 0.801865,-1.302201 1.228818,-2.795756 1.43048,-4.301527 0.07576,-0.565721 0.0871,-1.138217 0.130652,-1.707326 -0.01961,-1.397528 0.03485,-2.133746 -0.244135,-3.513762 -0.113537,-0.561613 -0.283541,-1.11158 -0.469108,-1.653672 -0.324993,-0.949399 -0.702095,-1.727658 -1.288979,-2.542385 -0.265589,-0.368698 -0.587642,-0.693241 -0.881463,-1.039862 -0.329268,-0.295815 -0.642434,-0.6106 -0.987805,-0.887446 -0.92535,-0.741753 -1.976162,-1.356654 -3.099783,-1.744337 -0.657516,-0.226863 -0.953182,-0.242525 -1.617896,-0.342238 -0.502907,-0.01899 -1.007792,-0.04883 -1.511042,-0.05535 -0.521724,-0.0068 -1.54145,-0.05931 -2.166174,0.06158 -0.274505,0.05312 -0.539866,0.145757 -0.809799,0.218636 -0.834852,0.426955 -0.979357,0.420217 -1.661976,1.106317 -1.323184,1.329932 -1.924394,3.174176 -2.445453,4.924009 -0.39463,1.775495 -0.564483,2.305137 -0.754339,4.148467 -0.07148,0.694028 -0.07876,1.393198 -0.125183,2.089352 -0.03627,0.543866 -0.08848,1.08661 -0.122878,1.630598 -0.09332,1.476051 -0.09489,1.010872 0.001,2.196147 0.917499,-0.016 1.834998,-0.032 2.752497,-0.048 0.189478,0.288106 0.244333,0.746568 0.568435,0.864318 0.194047,0.0705 0.133248,-0.391831 0.176293,-0.59375 0.08693,-0.407767 0.147761,-0.820725 0.213024,-1.232515 0.193948,-1.22375 0.34486,-2.454111 0.55744,-3.675035 0.328583,-1.938831 0.327002,-2.014431 0.702074,-3.903835 0.305659,-1.53974 0.692982,-3.078159 0.778633,-4.651455 0.05268,-0.236789 -3.296018,-0.981777 -3.348697,-0.744988 z" />
  <path
     style="opacity:0.8;fill:#ffff00;fill-rule:evenodd;stroke:#f8f818;stroke-width:1.88976;stroke-dasharray:none;stroke-opacity:1"
     id="path30"
     d="m 87.541336,20.599328 c -0.139298,0.135835 -0.289863,0.261003 -0.417895,0.407506 -0.298379,0.341425 -0.598053,0.683879 -0.859594,1.054281 -0.762115,1.079333 -1.397929,2.239705 -1.899912,3.462733 -0.287804,0.701203 -0.549176,1.416421 -0.741842,2.149495 -0.19118,0.727421 -0.270937,1.479647 -0.406406,2.219471 0.0032,0.700583 -0.07485,1.40628 0.0097,2.101747 0.219899,1.808495 1.079478,3.584717 2.720774,4.509135 0.482678,0.271856 1.024027,0.475032 1.575317,0.529461 0.82471,0.08142 1.655213,-0.08587 2.48282,-0.128799 1.618795,-0.422201 0.847528,-0.173188 2.318682,-0.731756 0.252923,-0.146901 -1.824574,-3.72377 -2.077497,-3.576869 v 0 c -1.173674,0.341823 -0.594477,0.17592 -1.737468,0.498143 0.176119,0.05303 0.445114,-0.0049 0.528356,0.159094 0.09355,0.184322 -0.576837,0.30006 -0.632019,0.262426 -0.141858,-0.09675 -0.236113,-0.264853 -0.284037,-0.429737 -0.232469,-0.799814 -0.05167,-1.545206 0.03078,-2.356502 0.130562,-0.573653 0.239565,-1.152643 0.391686,-1.720959 0.311878,-1.165154 0.795161,-2.533583 1.174192,-3.679416 0.173483,-0.524449 0.359369,-1.045123 0.514885,-1.575177 0.109803,-0.374246 0.180134,-0.759058 0.280545,-1.135932 0.05715,-0.214503 0.128003,-0.42512 0.192004,-0.637681 0.09763,-0.223664 -3.065464,-1.604328 -3.163092,-1.380664 z" />
  <path
     style="opacity:0.8;fill:#ffff00;fill-rule:evenodd;stroke:#f8f818;stroke-width:1.88976;stroke-dasharray:none;stroke-opacity:1"
     id="path31"
     d="m 91.393452,11.492321 c -0.243632,0.173879 -0.499329,0.331987 -0.730896,0.521636 -1.378863,1.129265 -2.785001,2.729396 -3.49514,4.376076 -0.168689,0.391158 -0.255404,0.812781 -0.383106,1.219172 -0.01945,1.06218 -0.19807,1.689851 0.538185,2.635203 0.308481,0.39609 0.804681,0.600567 1.207021,0.900851 0.225685,0.124808 1.990736,-3.066856 1.765051,-3.191664 v 0 c 0.780681,1.723166 -0.07408,-0.363817 0.301429,1.139862 0.01276,0.05108 0.04824,-0.09361 0.07236,-0.140411 0.48241,-0.779548 0.408088,-0.68555 1.028257,-1.545664 0.892782,-1.238203 1.875913,-2.4281 2.561507,-3.801092 0.14948,-0.202563 -2.715191,-2.316532 -2.864671,-2.113969 z" />
  <path
     style="opacity:0.8;fill:#ffff00;fill-rule:evenodd;stroke:#f8f818;stroke-width:1.88976;stroke-dasharray:none;stroke-opacity:1"
     id="path37"
     d="m 108.1178,6.8735137 c 0.45842,0.1399744 1.71332,0.5253031 1.92359,0.5718516 1.49969,0.331987 3.61328,0.5853689 5.08003,0.7247458 3.90904,0.3714552 4.69352,0.2973663 9.12763,0.4099661 4.07151,0.02848 8.13922,-0.1357372 12.20403,-0.3462051 1.21022,-0.062663 2.42088,-0.1189526 3.63007,-0.1989425 3.19816,-0.2115618 2.13901,0.051051 3.97568,-0.5388601 1.76497,-0.3641517 1.08304,-0.064866 2.13853,-0.6465772 0.24834,0.098767 1.64511,-3.4132861 1.39677,-3.512053 v 0 c -1.06667,-0.8389056 -0.39461,-0.4330597 -2.13248,-0.9998921 -2.63981,-0.2572513 -4.51251,-0.4893661 -7.12345,-0.5688535 -1.24903,-0.038026 -2.49919,-0.029632 -3.74877,-0.020924 -4.01297,0.027966 -8.02174,0.2288598 -12.03337,0.3139263 -0.7658,0.056118 -1.53142,0.1146364 -2.29739,0.1683536 -2.98354,0.209235 -3.86033,0.2179175 -6.71616,0.5593199 -0.77551,0.092709 -1.55041,0.1959869 -2.31926,0.3333736 -0.69887,0.1248811 -1.3774,0.3481867 -2.07721,0.4704671 -0.23195,-0.072708 -1.2602,3.2075955 -1.02824,3.2803035 z" />
  <path
     style="opacity:0.8;fill:#ffff00;fill-rule:evenodd;stroke:#f8f818;stroke-width:1.88976;stroke-dasharray:none;stroke-opacity:1"
     id="path38"
     d="m 129.43579,6.6651823 c -0.18127,0.090359 -0.36591,0.1742511 -0.54381,0.2710779 -0.90121,0.4905101 -1.72901,1.0031392 -2.60311,1.5563708 -1.84251,1.1661538 -2.81775,1.803889 -4.62853,3.140843 -1.01793,0.751568 -2.01024,1.537219 -3.01537,2.305829 -0.9747,0.923894 -2.00728,1.790336 -2.92412,2.771681 -2.93593,3.14248 -5.562,7.119202 -5.97702,11.512053 -0.0645,0.68234 0.0324,1.370375 0.0486,2.055563 0.14239,0.540373 0.22504,1.100136 0.42716,1.621119 0.28849,0.743578 0.79837,1.510059 1.42414,2.022904 0.2581,0.21152 0.57124,0.345115 0.85687,0.517672 0.20655,0.148715 2.30969,-2.772351 2.10314,-2.921065 v 0 c 0.0245,0.04846 0.12552,0.129579 0.0736,0.145379 -0.0589,0.01791 -0.10119,-0.07496 -0.13414,-0.126959 -0.21835,-0.344577 -0.12572,-0.4783 -0.12091,-0.942826 0.10274,-0.378526 0.16784,-0.769341 0.30823,-1.135579 0.49975,-1.303745 1.22733,-2.543076 2.03009,-3.677128 1.97287,-2.787045 4.42249,-5.179126 6.79877,-7.612278 0.82571,-0.852277 1.63976,-1.715991 2.47711,-2.556831 0.70627,-0.709212 1.44794,-1.382599 2.15321,-2.092803 1.29159,-1.300619 2.61478,-2.710932 3.69249,-4.2044923 0.15745,-0.2181958 0.29032,-0.4531129 0.43547,-0.6796694 0.13936,-0.2037749 -2.74245,-2.1746359 -2.88181,-1.970861 z" />
  <path
     style="opacity:0.8;fill:#ffff00;fill-rule:evenodd;stroke:#f8f818;stroke-width:1.88976;stroke-dasharray:none;stroke-opacity:1"
     id="path39"
     d="m 129.26251,22.620525 c -0.71068,1.449327 -1.26962,2.976246 -1.59922,4.558546 -0.0904,0.433885 -0.1507,0.873492 -0.22605,1.310238 -0.17416,1.322043 -0.16772,2.670993 0.17977,3.965495 0.11865,0.442019 0.21089,0.612923 0.39023,1.022169 0.0884,0.139528 0.1532,0.297188 0.26521,0.418584 0.92154,0.998781 1.25868,1.106221 2.95179,0.198084 0.35398,-0.189866 0.57199,-1.590214 0.64855,-2.026859 0.11286,-0.670554 0.18841,-1.347097 0.23146,-2.025672 0.0367,-0.579173 0.0278,-0.921696 0.084,-1.494078 0.0237,-0.241254 0.0622,-0.480827 0.0933,-0.721241 0.18574,-1.026933 0.21503,-2.074221 0.40958,-3.098993 0.16461,0.18465 -0.011,-0.366963 0.10146,-0.350749 0.0144,0.0021 0.007,0.02836 0.01,0.04253 0.07,-0.01928 0.14353,-0.02875 0.21009,-0.05783 0.13512,-0.05904 0.26127,-0.1368 0.39191,-0.2052 0.92703,-0.445438 1.88984,-1.18484 2.93195,-1.318728 0.21185,-0.02722 0.42694,-0.01428 0.64041,-0.02142 0.49623,-0.02001 1.07656,-0.05504 1.57243,-0.02696 0.0535,0.003 -0.21093,0.0285 -0.15748,0.03254 0.28899,0.02184 0.57952,0.01182 0.86918,0.02124 0.5658,0.01841 1.13127,0.04569 1.69692,0.06826 0.95609,0.07433 1.91977,0.131275 2.86121,0.323381 0.30154,0.05094 0.14959,0.02219 0.45579,0.08668 0.21232,0.09745 1.59049,-2.905254 1.37817,-3.002706 v 0 c 0.0791,0.01386 0.0417,0.01114 -0.0912,-0.06619 -0.35451,-0.176764 -0.70226,-0.379266 -1.0685,-0.530541 -0.73315,-0.30282 -1.50446,-0.467407 -2.28711,-0.58261 -0.2942,-0.03529 -0.58761,-0.07794 -0.8826,-0.105871 -1.94764,-0.184409 -3.93197,-0.20558 -5.8625,0.137409 -0.70426,0.184086 -1.21115,0.290671 -1.88328,0.564828 -1.0889,0.444152 -2.06339,1.121239 -2.89917,1.943736 -0.13995,0.156144 -0.28865,0.30486 -0.41983,0.468432 -0.11204,0.139696 -0.20655,0.29259 -0.30855,0.439774 -0.29959,0.432305 -0.56074,0.885618 -0.70404,1.396517 -0.37088,1.149409 -0.79739,2.289705 -0.87481,3.508773 -0.11404,1.448969 -0.15226,2.900743 -0.15536,4.35416 0.007,0.159858 0.004,0.32036 0.0203,0.479574 0.008,0.07905 -0.0142,0.278668 0.0507,0.232875 0.16799,-0.118506 0.1499,-0.445158 0.34445,-0.511601 1.50212,-0.513018 2.02695,-0.757663 2.692,0.392429 0.0156,-1.113882 0.2212,-2.211335 0.38191,-3.310745 0.0699,-0.374796 0.13383,-0.750737 0.20957,-1.12439 0.29072,-1.434293 0.2322,-0.917159 0.48674,-2.361402 0.10299,-0.584406 0.21742,-1.302524 0.24218,-1.906328 0.007,-0.171342 -0.0141,-0.34268 -0.0212,-0.51402 0.0426,-0.237596 -3.31753,-0.839728 -3.3601,-0.602132 z" />
  <path
     style="opacity:0.8;fill:#ffff00;fill-rule:evenodd;stroke:#f8f818;stroke-width:1.88976;stroke-dasharray:none;stroke-opacity:1"
     id="path40"
     d="m 168.94669,16.185601 c -0.95951,-0.09045 -1.73987,-0.20058 -2.68611,-0.176898 -1.77295,0.04437 -3.53288,0.372584 -5.22864,0.886182 -0.66784,0.202269 -1.31593,0.464761 -1.9739,0.697141 -1.67291,0.724848 -3.24009,1.673132 -4.51106,2.995898 -0.60184,0.626365 -1.28039,1.58063 -1.7206,2.334335 -0.22898,0.392043 -0.41552,0.80738 -0.62329,1.21107 -0.17345,0.401081 -0.3578,0.797623 -0.52036,1.203244 -0.61438,1.53304 -1.22575,3.33215 -1.23503,4.998744 -0.003,0.450961 0.0675,0.899406 0.10128,1.349109 0.14579,0.460381 0.23085,0.944622 0.43738,1.381142 0.65272,1.379534 1.83523,2.376618 3.251,2.909687 1.13049,0.425651 1.72137,0.390106 2.90117,0.483487 0.84777,-0.04127 1.69707,-0.05824 2.5433,-0.123794 0.50334,-0.03899 1.00366,-0.112794 1.50262,-0.189642 1.65396,-0.254735 3.31476,-0.625135 4.83493,-1.349847 0.52553,-0.250537 1.01108,-0.577531 1.51661,-0.866296 0.45092,-0.364842 0.93188,-0.695409 1.35276,-1.094527 1.23507,-1.171203 2.15228,-2.625805 2.74635,-4.216516 0.46695,-1.250343 0.47173,-1.682245 0.67563,-2.969675 0.0366,-1.150288 0.0895,-1.384434 -0.0437,-2.501544 -0.041,-0.343765 -0.11548,-0.682727 -0.17805,-1.023226 -0.13343,-0.726033 -0.20254,-1.108041 -0.40561,-1.808106 -0.0803,-0.276748 -0.17766,-0.548247 -0.26648,-0.82237 -0.21871,-0.569069 -0.25611,-0.710501 -0.50983,-1.223947 -0.0573,-0.116015 -0.11871,-0.23026 -0.18659,-0.340437 -0.0297,-0.04815 -0.0506,-0.148148 -0.10517,-0.133149 -0.0556,0.01529 0.0246,0.151627 -0.03,0.170317 -1.01921,0.349329 -2.06891,0.602409 -3.10337,0.903614 -0.025,0.01742 -0.0716,0.02201 -0.0749,0.05227 -0.0161,0.146554 0.0134,0.29456 0.0207,0.441807 0.0293,0.585733 0.0382,0.7589 0.0846,1.379115 0.0514,0.687154 0.11035,1.346078 0.16962,2.034234 0.1469,1.913329 0.46002,3.811337 0.95951,5.664657 0.23376,0.867334 0.51161,1.684292 0.78959,2.536726 0.30237,0.880747 0.59459,1.7654 0.86512,2.656522 0.16909,0.556974 0.33612,1.103253 0.54221,1.647769 0.0956,0.182764 0.16687,0.380536 0.28689,0.548293 0.37511,0.524287 0.76309,0.954292 1.42707,1.110141 0.48538,0.11393 0.99905,0.03833 1.49091,0.119864 0.11482,0.01903 -0.22795,0.04707 -0.34193,0.0706 0.2188,0.02997 0.43761,0.05994 0.65642,0.08991 1.40647,0.283232 2.83825,0.297189 4.2668,0.167395 0.44438,-0.04037 1.12059,-0.247659 1.52996,-0.477888 0.19772,-0.111195 0.3694,-0.263386 0.5541,-0.395079 0.86331,-1.135464 0.53198,-0.41252 0.57994,-2.314197 -0.0885,-0.21855 -3.17928,1.033347 -3.09076,1.251897 v 0 c 0.18378,-1.546385 -0.11736,-0.998106 0.50723,-1.806764 -0.0652,-0.268361 0.006,-0.148353 -0.48017,-0.191309 -0.24469,-0.02161 -0.49071,-0.02466 -0.73573,-0.04232 -0.0302,-0.0022 0.12088,-0.0051 0.0906,-0.0042 -1.35386,0.04001 -0.7802,0.01607 -2.12331,0.0951 -0.41425,0.013 -2.1688,0.06354 -2.30583,0.0966 -0.22436,0.05412 0.47389,0.02061 0.68173,0.120964 0.24174,0.116719 0.37472,0.604423 0.50803,0.789483 -0.0542,-0.532517 -0.0931,-1.064996 -0.1628,-1.596122 -0.1087,-0.828397 -0.14355,-1.008052 -0.32013,-1.853754 -0.0753,-0.360671 -0.15772,-0.71982 -0.23659,-1.079731 -0.30458,-1.253427 -0.58575,-2.51127 -0.87322,-3.768707 -0.10617,-0.464416 -0.21415,-0.928418 -0.32123,-1.392628 -0.10548,-0.444629 -0.21378,-0.888601 -0.31645,-1.333888 -0.0932,-0.404197 -0.18077,-0.809672 -0.27115,-1.214507 -0.0728,-0.352405 -0.14845,-0.704222 -0.21832,-1.057215 -0.25363,-1.28148 -0.4453,-2.590518 -1.09549,-3.747295 -1.08519,0.211346 -2.20203,0.29885 -3.25558,0.634039 -0.1296,0.04123 -0.0187,0.271593 -0.0184,0.407597 0.001,0.66476 0.206,1.307059 0.39169,1.937741 0.20774,0.750364 0.16918,0.562686 0.33246,1.364364 0.0502,0.246423 0.11063,0.491387 0.14291,0.74079 0.10538,0.814412 0.0419,1.644449 -0.0914,2.450401 -0.0717,0.339576 -0.12607,0.683273 -0.21507,1.01873 -0.18014,0.678994 -0.44104,1.415775 -0.78592,2.030928 -0.34965,0.623672 -0.79838,1.183212 -1.34889,1.64214 -0.28953,0.241367 -0.62165,0.426494 -0.93248,0.639741 -0.3791,0.179441 -0.74914,0.379447 -1.13732,0.538324 -1.29419,0.529703 -2.67224,0.848514 -4.04272,1.105341 -1.35488,0.253902 -1.07703,-0.174215 -1.35502,0.323752 -0.79851,0.09261 -1.62401,0.24493 -2.42367,0.06237 -0.33482,-0.07644 -0.66694,-0.214445 -0.89047,-0.490704 -0.10837,-0.133928 -0.15954,-0.305396 -0.23931,-0.458094 -0.0189,-0.223186 -0.0681,-0.445876 -0.0566,-0.669559 0.0271,-0.523494 0.25745,-1.385609 0.39612,-1.862396 0.10659,-0.366502 0.22964,-0.728034 0.34896,-1.090592 0.40114,-1.21887 0.27359,-0.851567 0.74805,-1.99948 0.32932,-0.621511 0.47329,-0.996442 0.95987,-1.513327 0.46901,-0.498217 1.08704,-0.878258 1.68348,-1.193037 1.0111,-0.533624 1.80884,-0.810966 2.88574,-1.236677 1.59578,-0.588461 3.19146,-1.184802 4.81743,-1.686573 0.37258,-0.114979 0.74932,-0.21615 1.12544,-0.318976 0.25479,-0.06966 0.58086,-0.01122 0.76719,-0.198447 0.10315,-0.10365 -0.27144,-0.108887 -0.40716,-0.16333 0.23312,0.07229 1.25542,-3.22455 1.0223,-3.296838 z" />
  <path
     style="opacity:0.8;fill:#ffff00;fill-rule:evenodd;stroke:#f8f818;stroke-width:1.88976;stroke-dasharray:none;stroke-opacity:1"
     id="path41"
     d="m 193.5416,19.037998 c -0.24361,0.03171 -0.49035,0.04492 -0.73082,0.09514 -2.27632,0.475412 -4.60137,1.508779 -6.50059,2.83889 -0.60869,0.426289 -1.15847,0.931041 -1.7377,1.396561 -0.47636,0.529037 -1.00479,1.015473 -1.42909,1.587113 -1.17073,1.577248 -1.8423,3.358478 -1.71954,5.340059 0.084,1.355645 0.35213,1.66092 0.89736,2.832826 0.24072,0.327206 0.45451,0.676045 0.72216,0.981618 0.85506,0.976223 2.22734,1.824769 3.43751,2.273073 0.40372,0.149557 0.82292,0.253454 1.23437,0.380181 1.26285,0.246448 2.02972,0.43735 3.35111,0.505913 1.13559,0.05892 2.27369,0.06873 3.41079,0.06205 0.92493,-0.0054 1.85271,-0.0067 2.7731,-0.09839 0.89273,-0.08892 1.76991,-0.294818 2.65486,-0.442227 0.36139,-0.144529 -1.68256,-5.255319 -2.04394,-5.110791 v 0 c -0.80761,0.114821 -1.61713,0.216856 -2.42282,0.344463 -0.78976,0.125086 -1.57799,0.26096 -2.36291,0.413519 -0.26882,0.05225 -0.52615,0.158131 -0.7967,0.200592 -0.81293,0.127587 -2.06561,0.221611 -2.92773,0.294249 -0.59275,-0.0033 -0.95492,0.04129 -1.51377,-0.114433 -0.47821,-0.133251 -1.0367,-0.443514 -1.39268,-0.794481 -0.12471,-0.122955 -0.22648,-0.267184 -0.33972,-0.400776 -0.22684,-0.421725 -0.34803,-0.539789 -0.35943,-1.061776 -0.0225,-1.030106 0.6055,-1.935242 1.27875,-2.65309 0.36453,-0.388674 0.78597,-0.719748 1.17896,-1.079621 0.48143,-0.365226 0.952,-0.745239 1.44431,-1.095677 1.85655,-1.321551 3.87835,-2.395198 5.70667,-3.756489 0.20778,-0.128165 -1.60473,-3.066651 -1.81251,-2.938487 z" />
  <path
     style="opacity:0.8;fill:#ffff00;fill-rule:evenodd;stroke:#f8f818;stroke-width:1.88976;stroke-dasharray:none;stroke-opacity:1"
     id="path42"
     d="m 205.60746,30.241334 c 0.2641,0.08432 0.51699,0.220392 0.79232,0.25297 0.80053,0.09473 1.60896,0.133669 2.41505,0.126556 2.15165,-0.01899 4.51047,-0.61746 6.51187,-1.364277 0.78276,-0.292082 1.53431,-0.661794 2.30146,-0.992691 0.6869,-0.408946 1.41107,-0.760959 2.0607,-1.226838 1.6172,-1.159757 3.10552,-2.795154 3.42292,-4.842665 0.0943,-0.608425 0.0932,-1.245833 -0.0415,-1.846611 -0.13567,-0.605115 -0.50259,-1.13388 -0.75389,-1.700821 -0.41483,-0.417118 -0.77458,-0.897453 -1.2445,-1.251355 -0.87612,-0.659801 -2.06375,-1.075407 -3.12145,-1.300553 -1.52287,-0.324161 -3.02678,-0.281985 -4.58156,-0.193553 -0.57628,0.03278 -1.14456,0.150618 -1.71684,0.225928 -1.82984,0.311958 -3.54997,0.987054 -5.21357,1.790182 -1.66823,0.805365 -2.50993,1.215109 -3.96412,2.404015 -0.62192,0.508467 -1.16906,1.102092 -1.75359,1.653138 -0.47526,0.621574 -1.01028,1.201716 -1.4258,1.864722 -1.15817,1.847985 -1.78244,3.921954 -1.69803,6.108213 0.0653,1.691167 0.31912,2.014347 0.88725,3.570999 0.85782,1.40718 0.97519,1.835969 2.24513,2.948763 1.71872,1.506048 3.9038,2.437816 6.1035,2.971161 0.91191,0.221104 1.84819,0.325691 2.77228,0.488537 3.29706,0.181771 3.82505,0.340203 7.5055,-0.164846 0.96308,-0.132159 1.9071,-0.391974 2.83724,-0.674548 1.46951,-0.446435 2.99086,-1.093991 4.26383,-1.975745 0.45244,-0.313392 0.82831,-0.724953 1.24247,-1.087429 0.22926,-0.349205 0.45852,-0.698409 0.68779,-1.047614 0.17055,-0.220942 -2.95403,-2.633002 -3.12459,-2.41206 v 0 c -0.15791,0.04012 -0.31583,0.08024 -0.47374,0.120364 -0.35928,0.116256 -0.7155,0.242409 -1.07782,0.34877 -1.28922,0.378447 -2.45258,0.672194 -3.78686,0.915783 -0.81261,0.14835 -1.63457,0.240353 -2.44966,0.374381 -0.39526,0.06499 -0.78236,0.182414 -1.18091,0.222606 -0.87191,0.08793 -1.74936,0.107409 -2.62404,0.161114 -1.73954,-0.02177 -2.72382,0.03617 -4.40872,-0.233915 -0.94165,-0.150942 -1.92921,-0.408443 -2.76884,-0.885808 -0.84078,-0.478022 -0.93957,-0.725705 -1.52652,-1.44022 -0.12798,-0.28956 -0.2999,-0.563457 -0.38393,-0.868682 -0.44968,-1.633392 0.23055,-3.406912 1.19208,-4.716298 0.34291,-0.466969 0.76237,-0.872572 1.14355,-1.308859 1.49393,-1.346686 1.31123,-1.258485 2.96389,-2.437305 0.49208,-0.350993 0.97779,-0.715273 1.50301,-1.014397 0.43583,-0.24821 0.9026,-0.4403 1.37012,-0.621891 1.15296,-0.447826 1.53722,-0.473453 2.74239,-0.719855 0.47101,-0.0523 0.94458,-0.0852 1.41303,-0.156902 0.0802,-0.01227 0.14384,-0.08546 0.22451,-0.09374 1.23075,-0.126272 2.49244,-0.06525 3.69091,0.247809 0.10812,0.03642 0.24289,0.02939 0.32436,0.109255 0.26119,0.256054 -0.0672,0.687046 -0.20771,0.844058 -0.24778,0.276922 -0.53722,0.517704 -0.84085,0.731917 -1.04507,0.737291 -2.03969,1.161476 -3.19383,1.729314 -1.91051,0.82806 -2.0227,0.910656 -3.96127,1.618057 -0.57988,0.211602 -1.16292,0.415142 -1.75094,0.602948 -0.46077,0.147164 -0.95448,0.20056 -1.3944,0.401636 -0.0799,0.03653 -0.0336,0.172494 -0.0504,0.258742 -0.24939,0.06235 -0.49878,0.124709 -0.74817,0.187064 -0.23338,-0.08126 -1.38252,3.21922 -1.14914,3.300477 z" />
</svg>
